# xmcd
#
# Track frame offsets: 
#        150
#        12697
#        26905
#        38230
#        49620
#        61027
#        71483
#        86905
#        98087
#        109972
#
# Disc length: 1579 seconds
#
# Revision: 0
# Processed by: cddbd v1.5.2PL0 Copyright (c) Steve Scherf et al.
# Submitted via: ExactAudioCopy v1.3
#
DISCID=8506290a
DTITLE=Sonny Boy Williamson - Ten Songs For You
DYEAR=2019
DGENRE=Blues
TTITLE0=Keep It To Yourself
TTITLE1=Help Me
TTITLE2=Bye Bye Bird
TTITLE3=Bring It On Home
TTITLE4=Don't Start Me Talkin
TTITLE5=Fattening Frogs For Snakes 
TTITLE6=Nine Below Zero
TTITLE7=Your Funeral And My Trial
TTITLE8=Pontiac Blues
TTITLE9=Checkin Up On My Baby
EXTD=
EXTT0=
EXTT1=
EXTT2=
EXTT3=
EXTT4=
EXTT5=
EXTT6=
EXTT7=
EXTT8=
EXTT9=
PLAYORDER=
